Genre:Adventure | Biography | Drama
Language:English
IMDb:http://www.imdb.com/title/tt1542344/
Source:BluRay.x264-Felony
Subtitles:Romana


Format : MPEG-4
Format profile : Base Media
Codec ID : isom
File size : 1.75 GiB
Duration : 1h 33mn
Overall bit rate : 2 677 Kbps


Video
ID : 1
Format : AVC
Format/Info : Advanced Video Codec
Format profile : High@L4.1
Format settings, CABAC : Yes
Format settings, ReFrames : 3 frames
Codec ID : avc1
Codec ID/Info : Advanced Video Coding
Duration : 1h 33mn
Bit rate mode : Variable
Bit rate : 2 322 Kbps
Maximum bit rate : 13.8 Mbps
Width : 1 280 pixels
Height : 688 pixels
Display aspect ratio : 1.860
Frame rate mode : Constant
Frame rate : 23.976 fps
Color space : YUV
Chroma subsampling : 4:2:0
Bit depth : 8 bits
Scan type : Progressive
Bits/(Pixel*Frame) : 0.110
Stream size : 1.49 GiB (85%)
Writing library : x264 


Audio
ID : 2
Format : AAC
Format/Info : Advanced Audio Codec
Format version : Version 4
Format profile : LC
Format settings, SBR : No
Codec ID : 40
Duration : 1h 33mn
Bit rate mode : Variable
Bit rate : 401 Kbps
Maximum bit rate : 545 Kbps
Channel(s) : 6 channels
Channel positions : Front: L C R, Side: L R, LFE
Sampling rate : 48.0 KHz
Stream size : 269 MiB (15%)



Plot:
A mountain climber becomes trapped under a boulder while canyoneering alone near Moab, Utah and resorts to desperate measures in order to survive